<svg width="160" height="179" viewBox="0 0 160 179" fill="none" xmlns="http://www.w3.org/2000/svg">
<path d="M-41.4357 -9.30797C-39.0038 -16.4663 -33.6822 -22.2771 -26.7648 -25.3275L38.5229 -54.1177C45.5665 -57.2237 53.6009 -57.1756 60.6067 -53.9853L122.786 -25.6699C129.938 -22.4134 135.315 -16.2032 137.516 -8.66003L158.115 61.9413C159.973 68.3095 159.422 75.1389 156.566 81.1265L129.772 137.307C127.05 143.014 122.41 147.586 116.663 150.223L60.7792 175.867C53.6743 179.128 45.5051 179.149 38.3835 175.925L-19.3206 149.803C-24.5751 147.424 -28.9298 143.426 -31.7468 138.392L-63.1293 82.319C-66.8663 75.6419 -67.5946 67.6927 -65.1333 60.4476L-41.4357 -9.30797Z" fill="#6FAE6C"/>
</svg>
