<svg width="194" height="194" viewBox="0 0 194 194" fill="none" xmlns="http://www.w3.org/2000/svg">
<g clip-path="url(#clip0_29_1084)">
<mask id="mask0_29_1084" style="mask-type:luminance" maskUnits="userSpaceOnUse" x="0" y="-14" width="194" height="194">
<path d="M194 -14H0V180H194V-14Z" fill="white"/>
</mask>
<g mask="url(#mask0_29_1084)">
<path d="M40.595 47.9291C40.8173 47.2402 41.711 45.8455 42.0962 45.1462C43.1903 43.1338 44.5407 41.1854 45.5732 39.1482C47.0935 36.1486 48.398 33.1526 50.104 30.2273C52.4503 26.2041 54.8602 23.2222 58.1026 19.8813C62.284 15.573 66.8331 11.5687 72.2003 8.74194C79.0719 5.5195 86.5327 3.53149 94.0343 2.46536C95.3853 2.2733 96.926 2.37951 98.2474 2.21898C101.49 1.82487 104.599 2.2084 107.787 2.29008C113.004 2.42384 117.832 2.78071 122.785 4.60004C131.716 7.55669 138.727 12.2643 144.897 19.406C146.284 21.0122 147.498 22.2293 148.758 24.0178C152.149 28.8294 154.746 33.8415 157.47 39.0339C158.607 41.2003 159.767 43.0265 160.945 45.3782C164.846 53.1669 166.98 62.4936 166.342 71.2057C166.245 72.5313 166.011 74.1425 165.607 75.3843L165.55 75.5559C165.667 76.0202 165.74 76.1792 166.135 76.4887C173.66 82.0509 180.652 91.2654 182.072 100.72C182.766 105.343 182.717 109.827 179.837 113.73C178.924 114.966 177.698 115.906 176.737 117.091C176.745 117.347 176.746 117.689 176.771 117.936C177.878 124.509 175.788 133.649 171.925 139.075C167.393 145.411 161.189 150.363 154.006 153.377C152.252 154.127 150.192 154.687 148.378 155.396C148.61 155.684 148.848 155.967 149.092 156.247C157.99 167.085 141.172 166.433 134.977 164.422C132.109 163.423 127.833 163.325 125.394 161.477C122.311 159.142 122.428 159.37 118.68 159.503C117.618 159.531 116.555 159.537 115.492 159.52C113.051 159.48 110.64 159.206 108.21 158.971C107.226 158.876 106.04 158.725 105.079 158.478C104.133 158.234 102.644 157.414 101.704 157.385C100.788 157.358 99.3881 158.04 98.4404 158.229C97.129 158.492 95.8548 158.644 94.5238 158.747C91.9161 158.947 89.4143 159.096 86.7964 159.086C85.1391 159.079 82.8171 158.637 81.3321 158.873C79.9255 159.096 77.9055 160.893 76.4566 161.463C74.5192 162.225 72.5811 162.453 70.5938 162.904C67.9183 163.512 65.2892 164.325 62.5247 164.442C59.7278 164.561 56.6845 164.674 54.1332 163.376C53.7697 163.191 53.26 163.008 52.9634 162.726C52.2364 162.035 52.124 161.414 52.0306 160.512C51.7147 157.461 53.4465 156.341 55.2744 154.236C55.1091 154.06 49.7147 152.145 48.8892 151.776C42.2934 148.822 36.5318 143.839 32.3447 137.955C25.6081 128.486 24.9752 115.208 27.2433 104.16C27.4713 103.049 27.6895 101.823 27.9852 100.715C28.1917 98.713 29.8737 96.2298 30.1633 94.5828C30.0355 93.8873 28.4712 92.7068 27.8839 92.1568C26.9706 91.3032 26.3376 90.4777 25.5297 89.5485C22.3798 85.9274 19.9724 82.0819 18.162 77.6314C17.5153 76.0418 17.1728 73.9965 16.4925 72.3799C15.8713 70.9039 15.0154 69.5401 14.4426 68.017C12.6428 63.2308 11.2671 57.2928 11.0776 52.1968C10.8727 46.6863 11.8474 40.0804 15.666 35.8898C17.4257 33.9587 19.7345 32.7822 22.3541 32.7002C23.9244 32.6449 25.4856 32.9624 26.9096 33.6267C31.1316 35.6306 34.8482 40.7186 37.1602 44.7321C38.0356 46.2517 38.2962 48.4047 39.6473 49.6164C40.0839 49.2919 40.3593 48.4697 40.595 47.9291Z" fill="url(#paint0_linear_29_1084)"/>
<path d="M40.595 47.9291C40.8173 47.2402 41.711 45.8455 42.0962 45.1462C43.1903 43.1338 44.5407 41.1854 45.5732 39.1482C47.0935 36.1486 48.398 33.1526 50.104 30.2273C52.4503 26.2041 54.8602 23.2222 58.1026 19.8813C62.284 15.573 66.8331 11.5687 72.2003 8.74194C79.0719 5.5195 86.5327 3.53149 94.0343 2.46536C95.3853 2.2733 96.926 2.37951 98.2474 2.21898C101.49 1.82487 104.599 2.2084 107.787 2.29008C113.004 2.42384 117.832 2.78071 122.785 4.60004C131.716 7.55669 138.727 12.2643 144.897 19.406C146.284 21.0122 147.498 22.2293 148.758 24.0178C152.149 28.8294 154.746 33.8415 157.47 39.0339C158.607 41.2003 159.767 43.0265 160.945 45.3782C164.846 53.1669 166.98 62.4936 166.342 71.2057C166.245 72.5313 166.011 74.1425 165.607 75.3843L165.55 75.5559C165.222 75.3198 165.124 74.9736 164.916 74.6519C163.415 72.335 164.604 69.0531 164.1 66.7119C163.67 66.3919 163.606 66.3762 163.737 65.8301C163.959 64.9038 163.381 63.6735 163.32 62.7253C163.04 58.357 161.616 54.1768 160.269 50.0299C159.921 49.2604 159.909 49.5891 159.542 49.1218C159.189 48.6732 159.416 48.1326 158.934 47.3743C158.512 46.9595 157.812 45.6398 157.503 45.0665C156.65 43.4016 155.704 41.7743 154.857 40.1161C153.423 37.3106 152.18 34.4788 150.453 31.8297C149.839 30.8886 149.369 29.6432 148.689 28.7433C147.142 26.6945 145.523 24.6898 143.896 22.7045C143.365 22.0614 142.41 21.2567 141.796 20.5619C141.122 19.7995 140.304 18.5491 139.632 17.9082C137.182 15.5452 134.383 13.4883 131.54 11.6253C130.873 11.1889 130.039 10.7795 129.339 10.3827C128.032 9.64239 126.721 8.908 125.342 8.3099C123.8 7.6405 122.252 7.22971 120.748 6.45332C120.684 6.49513 120.365 6.69805 120.331 6.70009C119.618 6.74267 117.293 5.86598 116.673 5.60331L116.571 5.55898C116.093 4.74554 114.82 4.72352 113.967 4.7434C113.603 4.56211 113.395 4.54902 113.005 4.56628L112.916 4.57113L112.803 4.46598C112.113 4.30622 111.601 4.59315 110.734 4.41554C110.405 4.15122 110.08 4.23716 109.708 4.3296C109.14 4.35841 108.936 4.3459 108.374 4.29099C107.972 4.18662 107.752 4.11882 107.342 4.08506C106.182 4.37762 105.151 3.77728 104.327 5.02218C103.965 5.05778 103.582 4.92188 103.165 4.92082C101.878 4.91742 100.587 4.91684 99.2999 4.91548C97.549 5.02558 95.941 5.15905 94.2026 5.39515C92.9387 5.56684 91.6462 5.48584 90.3371 5.6716C82.9593 6.75683 75.9088 9.44528 69.6816 13.548C68.213 14.5189 62.8913 18.405 62.3376 19.9619C61.9105 20.6337 59.9527 22.6144 59.2337 22.8868L59.1049 23.1125C59.1987 23.3473 59.2506 23.4466 59.3733 23.669C59.2877 24.1042 58.1289 24.7819 57.6227 25.2446L56.7148 26.2758C55.9691 27.8186 56.1428 27.7971 54.7954 28.8039L54.7329 28.8499L54.7026 29.7989C53.9972 30.8393 53.2786 31.9303 52.5131 32.9258C52.2346 33.2882 51.8611 33.5972 51.5754 33.9264C51.0486 34.7213 51.2057 34.9845 50.8521 35.6601C48.7349 39.7056 46.2451 43.5496 43.8086 47.3916C43.1174 48.4813 42.598 50.7931 41.9515 52.0831C43.2386 53.2659 44.8888 55.4461 45.158 57.2664C45.298 58.212 44.1068 58.8397 43.3974 58.137C41.4908 56.2005 39.8269 54.0442 38.0375 51.9734C36.7436 50.476 36.0314 48.0026 34.9863 46.2918C32.2698 41.8449 28.6155 36.4952 23.0806 35.6128C21.8234 35.4123 21.2806 35.6472 20.2221 36.1547C19.4217 36.5987 18.9336 36.8498 18.2604 37.4775C14.6005 41.3614 13.4716 47.1664 13.6515 52.354C13.7671 55.6903 14.376 59.0053 15.0818 62.257C15.353 63.5062 15.5971 64.7809 15.9672 66.0039C16.4289 67.5293 17.0354 69.0097 17.5861 70.5044C17.924 71.4215 18.2053 72.3734 18.5883 73.2723C18.99 74.2146 19.5513 75.0913 19.9935 76.0158C20.6564 77.4019 21.2108 78.8133 21.9921 80.1444C23.5889 82.8653 25.5497 85.3755 27.4858 87.8597C28.1838 88.756 28.8628 89.6872 29.6065 90.5456C30.898 92.0355 32.3816 92.9454 32.8725 94.9746C31.2132 95.2618 31.341 94.6623 30.5979 94.705C30.5311 95.4373 31.3447 95.4965 31.1298 96.6896C30.5954 99.7664 29.8802 102.806 29.2396 105.865C28.9461 107.266 29.0183 109.481 28.9091 111.028C28.7156 113.77 27.7757 117.05 28.9552 119.627C29.0854 119.911 29.248 120.318 29.043 120.577C28.7713 120.408 28.748 120.359 28.5372 120.125L28.4574 120.175C28.8145 121.481 29.8442 124.922 29.7235 126.064C29.6361 126.891 30.1382 127.082 30.4054 127.763C31.0818 129.488 31.7175 131.303 32.5706 132.951C33.69 135.113 35.9813 138.179 37.6125 140.036C38.6053 141.166 39.6483 142.336 40.8126 143.29C41.7485 144.058 42.777 144.704 43.7429 145.431C44.7242 146.17 45.6547 146.944 46.7204 147.563C47.8009 148.19 48.9521 148.649 50.0685 149.2C51.7069 150.009 52.8454 150.707 54.6504 151.212C56.2796 151.669 57.9714 151.882 59.6093 152.302C61.4352 152.77 63.2043 153.47 65.0222 153.971C66.2832 154.318 67.5986 154.476 68.8253 154.939C69.7316 155.275 70.3892 155.213 71.3086 155.661C72.8956 155.749 74.7032 155.817 76.2658 156.071C77.7428 156.192 80.1846 156.563 81.5987 156.548C84.816 156.416 88.2476 156.979 91.5424 156.596C93.9331 156.317 96.4059 156.028 98.7867 155.665C100.009 155.347 100.669 154.89 101.971 154.848C103.223 154.807 104.572 155.802 105.607 155.883C108.13 156.081 110.621 156.435 113.117 156.8C113.441 157.188 113.308 157.151 113.696 157.206C114.018 157.091 114.044 157.045 114.308 156.837C114.846 156.729 115.06 157.094 115.429 157.086C116.698 157.058 118.05 157.06 119.311 157.011C120.392 156.968 121.304 157.105 122.293 157.117C122.828 156.892 131.97 156.276 132.828 156.39C133.099 158.348 135.007 157.782 136.487 158.136L136.621 158.169C137.267 157.847 137.401 157.77 137.925 157.269C138.138 157.416 138.347 157.567 138.555 157.721C139.567 157.598 140.801 157.243 141.83 157.062C143.723 156.73 145.062 156.627 146.876 155.87C147.468 155.624 147.742 155.481 148.378 155.396C148.61 155.684 148.848 155.967 149.092 156.247C157.99 167.085 141.172 166.433 134.977 164.422C132.109 163.423 127.833 163.325 125.394 161.477C122.311 159.142 122.428 159.37 118.68 159.503C117.618 159.531 116.555 159.537 115.492 159.52C113.051 159.48 110.64 159.206 108.21 158.971C107.226 158.876 106.04 158.725 105.079 158.478C104.133 158.234 102.644 157.414 101.704 157.385C100.788 157.358 99.3881 158.04 98.4404 158.229C97.129 158.492 95.8548 158.644 94.5238 158.747C91.9161 158.947 89.4143 159.096 86.7964 159.086C85.1391 159.079 82.8171 158.637 81.3321 158.873C79.9255 159.096 77.9055 160.893 76.4566 161.463C74.5192 162.225 72.5811 162.453 70.5938 162.904C67.9183 163.512 65.2892 164.325 62.5247 164.442C59.7278 164.561 56.6845 164.674 54.1332 163.376C53.7697 163.191 53.26 163.008 52.9634 162.726C52.2364 162.035 52.124 161.414 52.0306 160.512C51.7147 157.461 53.4465 156.341 55.2744 154.236C55.1091 154.06 49.7147 152.145 48.8892 151.776C42.2934 148.822 36.5318 143.839 32.3447 137.955C25.6081 128.486 24.9752 115.208 27.2433 104.16C27.4713 103.049 27.6895 101.823 27.9852 100.715C28.1917 98.713 29.8737 96.2298 30.1633 94.5828C30.0355 93.8873 28.4712 92.7068 27.8839 92.1568C26.9706 91.3032 26.3376 90.4777 25.5297 89.5485C22.3798 85.9274 19.9724 82.0819 18.162 77.6314C17.5153 76.0418 17.1728 73.9965 16.4925 72.3799C15.8713 70.9039 15.0154 69.5401 14.4426 68.017C12.6428 63.2308 11.2671 57.2928 11.0776 52.1968C10.8727 46.6863 11.8474 40.0804 15.666 35.8898C17.4257 33.9587 19.7345 32.7822 22.3541 32.7002C23.9244 32.6449 25.4856 32.9624 26.9096 33.6267C31.1316 35.6306 34.8482 40.7186 37.1602 44.7321C38.0356 46.2517 38.2962 48.4047 39.6473 49.6164C40.0839 49.2919 40.3593 48.4697 40.595 47.9291Z" fill="#633021"/>
<path d="M56.4048 154.726C60.2514 155.786 64.3461 156.497 68.2949 157.047C68.2603 156.463 68.5406 155.458 68.8253 154.939C69.7316 155.275 70.3892 155.213 71.3086 155.661C72.8956 155.749 74.7032 155.817 76.2658 156.071C77.7428 156.192 80.1846 156.563 81.5987 156.548C80.6954 156.778 78.1247 158.595 77.0945 158.977C76.2184 159.344 75.1595 159.462 74.2805 159.781C69.3056 161.59 64.0692 162.092 58.8028 161.925C56.4703 161.851 52.4034 161.058 54.9812 157.927C55.6408 157.126 56.3365 155.767 56.4048 154.726Z" fill="url(#paint1_linear_29_1084)"/>
<path d="M68.8253 154.939C69.7316 155.275 70.3892 155.213 71.3087 155.661C71.2952 156.873 71.024 156.456 70.6407 157.28C70.2551 157.319 68.8135 157.096 68.2949 157.047C68.2604 156.463 68.5406 155.458 68.8253 154.939Z" fill="#7A4221"/>
<path d="M71.3086 155.661C72.8955 155.749 74.7031 155.817 76.2658 156.071C75.615 156.287 74.2949 156.038 73.5718 155.936C73.2633 156.139 72.9385 156.345 72.6373 156.556C70.8977 156.547 71.7024 156.862 70.6407 157.28C71.0239 156.456 71.2951 156.873 71.3086 155.661Z" fill="#BC661A"/>
<path d="M146.876 155.87C146.956 156.406 147.129 156.657 147.384 157.124C148.137 158.54 149.059 159.62 149.469 161.148C149.023 161.523 147.828 162.408 147.276 162.524C143.25 163.379 138.79 163.054 134.733 162.47C133.818 162.338 132.647 162.134 131.779 161.791C130.247 160.933 129.341 160.371 127.581 160.055C126.091 159.787 123.186 158.356 122.293 157.117C122.828 156.892 131.97 156.276 132.828 156.39C133.099 158.348 135.007 157.782 136.487 158.136L136.621 158.169C137.267 157.847 137.401 157.77 137.925 157.269C138.138 157.416 138.347 157.567 138.555 157.721C139.567 157.598 140.801 157.243 141.83 157.062C143.723 156.73 145.062 156.627 146.876 155.87Z" fill="#EE9934"/>
<path d="M56.7148 26.2758C55.969 27.8186 56.1428 27.7971 54.7953 28.8039L54.7329 28.8499L54.7026 29.7989C53.9971 30.8393 53.2786 31.9303 52.5131 32.9258C52.2345 33.2882 51.8611 33.5972 51.5753 33.9264C51.5335 33.8002 51.4975 33.6539 51.462 33.5241C51.6491 32.4205 53.5464 30.0506 54.2373 29.1095C54.7152 28.4584 55.1068 27.6324 55.5822 26.9677C56.0044 26.3775 56.0294 26.3847 56.7148 26.2758Z" fill="#8F634A"/>
<path d="M99.2999 4.91548C100.09 4.65737 101.574 4.64495 102.432 4.55649C102.616 4.53748 102.615 4.45794 102.711 4.29255C102.491 4.20816 101.677 4.37461 101.341 4.40711L101.273 4.32214C103.681 4.12969 104.815 3.9804 107.342 4.08507C106.182 4.37762 105.151 3.77729 104.327 5.02218C103.965 5.05778 103.582 4.92189 103.165 4.92082C101.878 4.91742 100.587 4.91684 99.2999 4.91548Z" fill="#8F634A"/>
<path d="M59.1657 22.7851C59.7856 21.2659 60.6385 20.2462 62.3376 19.9619C61.9105 20.6338 59.9527 22.6144 59.2337 22.8868L59.1657 22.7851Z" fill="#764737"/>
<path d="M157.503 45.0665C157.78 45.0299 158.051 44.9382 158.251 45.1336C158.842 45.7119 159.09 46.3078 159.686 46.9366C159.719 47.2563 159.811 47.7477 159.704 48.0278C159.319 47.8226 159.321 47.5678 158.934 47.3743C158.512 46.9595 157.812 45.6398 157.503 45.0665Z" fill="#8F634A"/>
<path d="M146.876 155.87C147.468 155.624 147.742 155.481 148.378 155.396C148.61 155.684 148.848 155.967 149.092 156.247C148.361 156.634 147.801 156.638 147.384 157.123C147.129 156.657 146.956 156.406 146.876 155.87Z" fill="#906545"/>
<path d="M59.1657 22.7851L59.2337 22.8868L59.1049 23.1125C59.1987 23.3473 59.2506 23.4466 59.3733 23.669C59.2878 24.1042 58.1289 24.7819 57.6228 25.2446L57.2682 25.3916L57.1654 25.2786L57.2808 24.6113C57.9409 24.0228 58.5179 23.3827 59.1657 22.7851Z" fill="#8F634A"/>
<path d="M159.686 46.9366C160.203 47.5271 160.38 49.2596 160.269 50.0299C159.921 49.2604 159.909 49.5891 159.542 49.1218C159.189 48.6731 159.416 48.1326 158.934 47.3743C159.321 47.5678 159.319 47.8226 159.704 48.0278C159.811 47.7477 159.719 47.2563 159.686 46.9366Z" fill="#906545"/>
<path d="M40.595 47.9291C40.7343 48.3705 40.5589 48.164 40.5885 48.5348L40.695 48.5854L40.9105 48.3571C41.3903 48.8932 40.6343 49.8677 40.2486 50.2604C39.9836 50.0461 39.7765 49.9271 39.6473 49.6164C40.0839 49.2919 40.3594 48.4698 40.595 47.9291Z" fill="#764737"/>
<path d="M18.2604 37.4775C17.9266 36.1554 19.2032 35.908 20.2222 36.1547C19.4217 36.5987 18.9336 36.8498 18.2604 37.4775Z" fill="#764737"/>
<path d="M174.86 118.158C173.607 119.41 171.576 119.381 170.006 119.591C169.672 119.636 168.632 120.117 167.962 120.249C166.517 119.708 165.865 120.107 164.456 119.866C162.088 119.442 158.317 118.813 156.597 117.005C153.483 113.733 149.46 110.988 147.596 106.758C146.933 105.253 146.107 103.69 145.881 102.062C145.723 100.927 145.646 98.1107 146.624 97.3638C148.363 97.1591 148.337 101.068 148.588 102.094C149.002 103.478 149.679 105.367 150.525 106.522C155.055 112.715 160.713 118.4 169.079 116.912C173.692 116.093 175.121 115.152 177.868 111.353C180.098 108.269 179.691 104.518 179.228 100.918C177.803 93.3654 172.926 86.5133 167.772 80.9833C166.926 80.0758 165.346 79.2632 164.328 78.5326C163.598 78.0098 162.702 76.7338 163.342 75.9365C164.354 75.5812 165.241 76.4722 166.135 76.4887C173.66 82.051 180.652 91.2654 182.072 100.72C182.766 105.343 182.717 109.827 179.837 113.73C178.924 114.966 177.698 115.906 176.737 117.091C176.745 117.347 176.746 117.689 176.771 117.936C176.7 118.317 176.767 118.272 176.546 118.519C176.266 118.551 176.277 118.533 176.012 118.42C175.535 118.278 175.343 118.192 174.903 118.387L174.86 118.158Z" fill="#633021"/>
<path d="M176.056 117.288C176.352 117.062 176.3 117.133 176.737 117.091C176.745 117.347 176.746 117.689 176.771 117.936C176.7 118.317 176.767 118.272 176.546 118.519C176.266 118.551 176.277 118.533 176.012 118.42C176.041 118.068 176.044 117.645 176.056 117.288Z" fill="#7A4221"/>
<path d="M176.056 117.288C176.044 117.645 176.041 118.068 176.012 118.42C175.535 118.278 175.343 118.192 174.903 118.387L174.86 118.158C174.961 117.983 175.838 117.432 176.056 117.288Z" fill="#764737"/>
<path d="M176.771 117.936C177.878 124.509 175.788 133.649 171.925 139.075C167.393 145.411 161.189 150.363 154.006 153.377C152.252 154.127 150.192 154.687 148.378 155.396C147.742 155.481 147.468 155.624 146.876 155.87C145.062 156.627 143.723 156.73 141.83 157.062C140.801 157.243 139.567 157.598 138.555 157.721C138.347 157.567 138.138 157.416 137.925 157.269C137.401 157.77 137.267 157.847 136.621 158.169L136.487 158.136C135.007 157.782 133.099 158.348 132.828 156.39C133.294 155.971 134.128 155.954 134.753 155.838C137.569 155.317 140.411 154.335 143.178 153.581C144.448 153.235 146.403 153.076 147.497 152.722C149.61 152.037 152.695 151.159 154.626 150.113C155.964 149.389 157.956 148.3 159.162 147.477C160.188 146.777 161.528 145.47 162.58 144.688C163.44 144.049 164.523 143.263 165.293 142.548C165.757 142.117 166.364 141.229 166.832 140.702C170.127 137 172.433 132.638 173.615 127.826C174.069 125.648 174.181 123.4 174.471 121.199C174.583 120.341 174.64 119.19 174.903 118.387C175.343 118.192 175.535 118.278 176.012 118.42C176.277 118.533 176.266 118.551 176.546 118.519C176.767 118.272 176.7 118.317 176.771 117.936Z" fill="#633021"/>
<path d="M107.342 4.08507C107.752 4.11882 107.972 4.18663 108.374 4.291C108.1 4.32834 107.196 4.47006 107.067 4.72721C107.004 4.87581 106.915 5.17894 106.799 5.20687C106.159 5.35926 105.058 5.07709 104.327 5.02218C105.151 3.77729 106.182 4.37762 107.342 4.08507Z" fill="#906545"/>
<path d="M110.734 4.41554C111.601 4.59315 112.113 4.30622 112.803 4.46598L112.916 4.57113L113.005 4.56628C113.395 4.54901 113.603 4.56211 113.967 4.7434C113.883 4.84806 113.712 5.044 113.655 5.15225C113.526 5.31822 113.475 5.40232 113.323 5.54035L112.958 5.7232C112.58 5.69313 111.931 5.33102 111.452 5.15982C111.17 4.80034 111.083 4.71052 110.734 4.41554Z" fill="#8F634A"/>
<path d="M112.803 4.46599L112.916 4.57114L113.005 4.56629C113.395 4.54902 113.603 4.56211 113.967 4.74341C113.883 4.84807 113.712 5.04401 113.655 5.15226C113.526 5.31823 113.475 5.40233 113.323 5.54036C112.881 5.40369 112.771 5.46024 112.567 5.16642C112.632 4.86194 112.687 4.74671 112.803 4.46599Z" fill="#7A4221"/>
<path d="M113.967 4.74341C114.82 4.72352 116.093 4.74554 116.571 5.55898C115.649 5.81341 114.521 5.51485 113.655 5.15226C113.712 5.04401 113.883 4.84807 113.967 4.74341Z" fill="#764737"/>
<path d="M108.374 4.291C108.936 4.3459 109.14 4.35842 109.708 4.32961C109.384 4.70102 109.381 4.75786 109.203 5.2321C108.535 5.47343 107.716 5.02141 107.067 4.72721C107.196 4.47006 108.1 4.32835 108.374 4.291Z" fill="#8F634A"/>
<path d="M109.708 4.3296C110.08 4.23716 110.405 4.15122 110.734 4.41554C111.083 4.71052 111.17 4.80034 111.452 5.15982C110.609 5.15129 110.036 5.1508 109.203 5.23209C109.381 4.75786 109.384 4.70101 109.708 4.3296Z" fill="#906545"/>
<path d="M98.1174 48.9843C101.58 48.4559 105.882 50.2534 108.756 52.1274C109.321 52.4955 109.862 53.1928 110.277 53.7249C109.412 55.2847 109.367 56.3516 108.772 57.8846C107.462 61.2576 104.603 63.7473 101.454 65.2908C101.396 65.3118 101.337 65.3321 101.278 65.3521C99.9672 65.8009 99.0651 65.7237 97.8332 65.0819C93.8108 62.9854 92.098 59.861 90.7534 55.6841C86.263 52.2632 95.824 49.282 98.1174 48.9843Z" fill="#BC661A"/>
<path d="M94.5228 59.3415C93.9578 58.6585 93.3368 57.0918 92.6996 56.1546L92.7457 56.0442C93.1865 56.035 93.5813 56.4149 94.0366 56.5102C97.6372 57.2639 103.835 57.315 107.195 55.9424C106.883 56.5257 105.683 59.0366 105.406 59.3302C104.733 60.6407 103.391 61.8269 102.133 62.5801C98.9176 64.5046 96.1089 62.1556 94.5228 59.3415Z" fill="#EE9934"/>
<path d="M94.5228 59.3415C93.9578 58.6585 93.3368 57.0918 92.6996 56.1546L92.7457 56.0442C93.1865 56.035 93.5813 56.4149 94.0366 56.5102C97.6372 57.2639 103.835 57.315 107.195 55.9424C106.883 56.5257 105.683 59.0366 105.406 59.3302C104.378 58.7462 95.6129 58.7823 94.5228 59.3415Z" fill="#DA802A"/>
<path d="M98.7916 50.7331C101.41 50.1611 104.3 51.3644 106.452 52.758C106.802 52.9854 107.705 53.5486 107.79 53.9337C107.269 54.4428 101.911 54.9195 100.76 54.9929C97.807 55.3084 94.1765 54.4678 91.2748 53.8685C93.9938 52.1692 95.4621 51.1302 98.7916 50.7331Z" fill="#EE9934"/>
<path d="M122.587 47.1315L122.697 47.1244C125.002 46.9892 125.673 48.1702 126.433 50.1464C126.95 51.4899 126.931 52.5789 126.956 53.9951C126.346 55.2367 125.772 55.6189 124.626 56.2702C119.77 56.5689 118.702 47.9851 122.587 47.1315Z" fill="#633021"/>
<path d="M76.6287 46.6365C80.5477 46.4144 80.2497 51.3251 78.8596 53.6694C78.1208 54.9155 77.786 55.251 76.4348 55.6566C72.0561 55.7562 72.8205 51.0644 74.2328 48.4794C74.7784 47.481 75.5446 46.9116 76.6287 46.6365Z" fill="#633021"/>
</g>
</g>
<defs>
<linearGradient id="paint0_linear_29_1084" x1="97.6596" y1="157.17" x2="95.546" y2="5.07669" gradientUnits="userSpaceOnUse">
<stop stop-color="#E1AE6D"/>
<stop offset="1" stop-color="#F1CE93"/>
</linearGradient>
<linearGradient id="paint1_linear_29_1084" x1="72.0452" y1="150.844" x2="62.0524" y2="165.482" gradientUnits="userSpaceOnUse">
<stop stop-color="#CE7424"/>
<stop offset="1" stop-color="#FFB441"/>
</linearGradient>
<clipPath id="clip0_29_1084">
<rect width="194" height="194" fill="white"/>
</clipPath>
</defs>
</svg>
