<svg width="257" height="264" viewBox="0 0 257 264" fill="none" xmlns="http://www.w3.org/2000/svg">
<g clip-path="url(#clip0_33_2)">
<mask id="mask0_33_2" style="mask-type:luminance" maskUnits="userSpaceOnUse" x="0" y="0" width="257" height="264">
<path d="M257 0H0V264H257V0Z" fill="white"/>
</mask>
<g mask="url(#mask0_33_2)">
<path d="M121.002 29.1831C134.166 28.8634 141.61 29.2802 154.254 33.1026C173.817 39.0164 186.878 52.47 196.565 70.5694C203.846 84.1718 211.364 96.5959 211.227 112.777C211.209 114.54 210.863 119.691 211.656 120.972C216.844 128.002 220.686 135.978 223.379 144.347C224.772 148.673 226.193 156.725 225.487 161.255C225.521 161.982 225.526 162.233 225.702 162.951C226.718 167.012 226.281 167.515 226.515 171.325C227.148 181.653 225.508 191.099 220.496 200.154C219.608 201.758 218.274 203.349 217.129 204.785C211.532 211.811 204.085 216.718 196.028 220.278C193.687 221.313 190.927 221.833 188.632 222.952C188.868 223.389 189.165 223.984 189.445 224.374C190.648 226.092 192.582 228.103 192.773 230.24C193.502 238.337 179.047 236.206 174.622 235.07C170.825 233.998 166.105 232.985 162.596 231.215C159.542 229.673 158.182 227.172 154.318 227.893C153.844 227.981 151.253 228.018 150.754 227.953C144.978 227.21 139.096 227.445 133.488 225.661C131.024 224.874 129.151 225.497 126.717 225.981C119.746 227.505 112.63 227.231 105.565 227.348C104.374 227.367 100.948 230.011 99.4216 230.556C94.663 232.286 89.5606 233.33 84.582 234.151C81.3912 234.676 77.9695 234.787 74.8093 234.037C72.3162 233.446 70.0681 232.625 69.8875 229.573C69.7025 226.441 72.1758 224.071 74.0402 221.905C73.297 221.295 67.3571 219.236 66.0206 218.667C59.7275 215.99 55.3295 213.188 50.4966 208.235C44.5764 202.166 40.2336 195.444 38.5141 186.884C37.6046 182.357 37.0731 177.277 37.8881 172.685C37.9467 172.391 38.3636 171.737 38.5342 171.469C38.602 171.094 38.6549 170.815 38.3991 170.498C36.1159 167.669 33.6866 164.663 32.7473 161.006C30.4489 152.056 33.9639 142.18 38.4272 134.508C39.8951 132.129 41.7122 129.921 43.3014 127.639C44.8298 125.445 47.7625 123.539 48.9612 121.257C48.9251 120.537 48.8091 119.838 48.6652 119.134C48.0818 116.278 47.6251 113.481 47.6828 110.538C47.8676 101.479 49.9408 92.5663 53.7628 84.4005C54.9504 81.8669 56.5993 79.2363 57.8595 76.7065C58.9804 74.4562 60.0885 72.0848 61.2501 69.8776C65.5715 61.6676 71.0683 53.9161 77.6555 47.4698C79.9644 45.2103 86.6812 39.8463 89.5575 38.2923C98.052 33.7029 111.423 29.0207 121.002 29.1831Z" fill="url(#paint0_linear_33_2)"/>
<path d="M48.9612 121.257C48.9251 120.537 48.8091 119.838 48.6652 119.134C48.0818 116.278 47.6251 113.481 47.6828 110.538C47.8676 101.479 49.9408 92.5663 53.7628 84.4005C54.9504 81.8669 56.5993 79.2363 57.8595 76.7065C58.9804 74.4562 60.0885 72.0848 61.2501 69.8776C65.5715 61.6676 71.0683 53.9161 77.6555 47.4698C79.9644 45.2103 86.6812 39.8463 89.5575 38.2923C98.052 33.7029 111.423 29.0207 121.002 29.1831L120.914 29.3812C121.394 29.7174 121.453 30.3678 121.168 30.8741C119.944 31.228 118.323 31.0842 117.289 31.6341C117.112 32.2555 117.23 32.2587 117.675 32.7153C117.226 33.1172 117.393 33.0763 116.871 33.1874C116.315 33.0581 115.922 32.6808 115.453 32.324C114.168 33.3643 113.639 32.9484 112.154 33.228C96.1055 36.2481 82.1109 45.3845 72.2466 58.6703C71.2593 60.0002 70.0692 61.2922 69.124 62.667C68.4182 63.6933 67.9975 64.9517 67.3304 66.0227C66.4716 67.5625 65.5748 68.9818 64.6387 70.4732C63.0689 73.8506 61.7118 76.6374 59.8738 79.8875C57.2139 84.5905 54.6628 88.3715 53.4973 93.8202C53.0891 95.9796 52.5626 97.4421 51.9291 99.4974C51.5687 100.666 51.4628 102.09 51.2365 103.266L51.2235 103.498C51.0023 106.969 49.8492 109.401 50.2899 113.309C50.2066 114.584 51.6106 121.491 51.093 122.298C48.8068 125.864 45.4415 129.162 43.1575 132.667C38.3241 140.081 33.9923 149.898 35.4265 158.985C35.8145 161.443 37.9477 165.007 39.4137 166.878C41.4682 169.602 45.5591 170.877 48.7999 171.18C52.2849 171.508 56.6886 169.803 59.3275 167.447C62.7149 164.422 63.0797 159.773 60.0173 156.235C59.1573 155.244 58.1524 154.396 57.0387 153.723C55.1867 152.607 47.6732 149.594 47.4717 147.544C47.9843 146.957 47.9041 147.267 47.9661 146.591C48.1413 144.68 43.4765 137.489 47.5916 137.829C48.8658 137.935 51.0782 138.238 52.4277 138.369C56.6714 138.783 60.9178 139.168 65.1665 139.524C69.3379 139.824 73.5143 140.044 77.6935 140.187C79.7507 140.254 86.0401 140.206 87.5235 140.996C88.0153 141.62 89.2247 148.581 89.5914 150.023C92.077 159.801 95.15 169.176 99.244 178.366C100.184 180.477 101.742 182.648 101.993 184.964C102.077 186.113 99.0178 186.443 98.102 186.573C85.5749 188.339 72.7009 186.987 60.4032 184.209C59.9103 184.098 59.4234 183.818 59.1905 183.324C57.7358 180.239 57.0704 176.475 55.8268 173.381C54.6041 173.795 52.1426 174.53 50.7641 174.569C47.7806 174.652 43.6043 173.938 40.9073 172.627C40.1557 172.261 39.9686 171.596 39.1204 171.453C38.9846 171.731 38.9704 171.955 38.9218 172.26C39.3679 172.507 39.8347 172.685 39.9089 173.274C40.381 177.017 40.4047 180.309 41.1027 184.114C42.6234 192.513 46.8977 199.449 52.4127 205.689C53.6336 207.071 55.4573 208.256 56.8451 209.464C64.7561 216.347 75.0932 218.353 84.701 221.418C86.5123 221.996 90.9984 222.702 92.3659 223.604C95.2325 223.465 96.9652 223.906 99.7179 224.099C102.176 224.269 104.076 224.382 106.535 224.677C108.965 224.758 111.383 224.796 113.811 224.702C114.745 224.665 115.332 224.912 116.102 224.424C116.135 224.403 118.099 224.471 118.351 224.363C120.961 224.036 123.564 223.587 126.184 223.34C127.622 223.204 129.104 222.469 130.487 222.343C132.25 222.184 134.348 223.294 136.085 223.612C139.106 224.166 142.138 224.488 145.174 224.921C147.672 225.213 150.88 225.055 153.459 225.296C154.971 225.439 156.224 225.172 157.753 225.708C158.338 225.48 160.99 225.49 161.922 225.414C163.616 225.279 165.309 225.117 167 224.925C167.991 224.807 169.071 224.55 170.04 224.561C169.71 225.068 169.369 225.507 169.007 225.987C169.282 226.243 170.045 226.998 170.334 227.044C173.381 227.535 184.562 224.857 186.851 223.768C187.37 223.389 188.013 223.106 188.632 222.952C188.868 223.389 189.165 223.984 189.445 224.374C190.648 226.092 192.582 228.103 192.773 230.24C193.502 238.337 179.047 236.206 174.622 235.07C170.825 233.998 166.105 232.985 162.596 231.215C159.542 229.673 158.182 227.172 154.318 227.893C153.844 227.981 151.253 228.018 150.754 227.953C144.978 227.21 139.096 227.445 133.488 225.661C131.024 224.874 129.151 225.497 126.717 225.981C119.746 227.505 112.63 227.231 105.565 227.348C104.374 227.367 100.948 230.011 99.4216 230.556C94.663 232.286 89.5606 233.33 84.582 234.151C81.3912 234.676 77.9695 234.787 74.8093 234.037C72.3162 233.446 70.0681 232.625 69.8875 229.573C69.7025 226.441 72.1758 224.071 74.0402 221.905C73.297 221.295 67.3571 219.236 66.0206 218.667C59.7275 215.99 55.3295 213.188 50.4966 208.235C44.5764 202.166 40.2336 195.444 38.5141 186.884C37.6046 182.357 37.0731 177.277 37.8881 172.685C37.9467 172.391 38.3636 171.737 38.5342 171.469C38.602 171.094 38.6549 170.815 38.3991 170.498C36.1159 167.669 33.6866 164.663 32.7473 161.006C30.4489 152.056 33.9639 142.18 38.4272 134.508C39.8951 132.129 41.7122 129.921 43.3014 127.639C44.8298 125.445 47.7625 123.539 48.9612 121.257Z" fill="#6B3724"/>
<path d="M71.9257 229.326C72.6923 227.499 73.4894 226.583 74.4541 224.907C74.8503 224.219 75.095 223.415 75.4341 222.671C77.3635 223.287 79.1795 223.031 81.1444 223.755C83.5146 224.628 88.9709 225.373 91.3393 225.304C91.7966 224.933 92.1284 224.739 92.3755 224.201C92.3769 224.005 92.3892 223.794 92.3659 223.604C95.2325 223.465 96.9652 223.906 99.7179 224.099C102.176 224.269 104.076 224.382 106.535 224.677C104.425 225.1 103.57 226.336 101.699 227.184C100.425 227.762 98.9376 228.037 97.6197 228.521C96.463 228.947 95.3396 229.511 94.181 229.936C88.243 231.552 81.5741 232.176 75.4865 231.226C74.7511 231.111 72.818 229.731 71.9257 229.326Z" fill="url(#paint1_linear_33_2)"/>
<path d="M186.851 223.768C187.37 223.389 188.014 223.106 188.632 222.952C188.868 223.389 189.165 223.984 189.445 224.374C188.849 225.702 189.305 226.189 188.967 227.571C189.857 229.2 190.309 229.326 190.353 231.245C188.777 231.883 187.983 233.054 186.122 232.972C185.716 232.954 184.901 233.144 184.48 233.236C174.201 233.379 166.404 231.433 157.753 225.708C158.338 225.48 160.99 225.49 161.922 225.414C163.617 225.279 165.309 225.117 167 224.925C167.991 224.807 169.071 224.55 170.04 224.561C169.71 225.068 169.369 225.507 169.007 225.987C169.282 226.243 170.045 226.998 170.334 227.044C173.381 227.535 184.562 224.857 186.851 223.768Z" fill="url(#paint2_linear_33_2)"/>
<path d="M186.851 223.768C187.37 223.389 188.014 223.106 188.632 222.952C188.868 223.389 189.165 223.984 189.445 224.374C188.849 225.702 189.305 226.189 188.967 227.571C188.254 226.504 187.555 224.253 186.851 223.768Z" fill="#B96A20"/>
<path d="M51.2365 103.266C50.6859 101.533 52.2093 99.414 51.6059 98.2972C51.1502 98.1317 51.3897 98.1797 50.8303 98.278L50.7731 98.4572C51.004 98.7582 51.1151 98.8932 51.2988 99.2372L51.1072 99.3629L50.8266 99.222C50.5251 98.7415 50.5267 98.7711 50.4547 98.2105C50.9299 97.7933 51.8311 98.258 52.4105 97.3356C51.9255 95.5932 51.8737 94.8574 53.4973 93.8202C53.0891 95.9796 52.5626 97.4421 51.9291 99.4974C51.5687 100.666 51.4628 102.09 51.2365 103.266Z" fill="#8C5E49"/>
<path d="M64.6387 70.4732L64.6084 70.2798C64.3553 68.7304 65.6262 66.8494 66.7349 65.8466C66.8495 65.743 67.1876 65.9574 67.3304 66.0227C66.4716 67.5625 65.5748 68.9817 64.6387 70.4732Z" fill="#8C5E49"/>
<path d="M184.48 233.236C184.901 233.144 185.716 232.954 186.122 232.972C187.983 233.054 188.777 231.883 190.353 231.246C189.406 234.503 186.686 233.202 184.48 233.236Z" fill="#87451E"/>
<path d="M48.1627 139.907C59.2613 142.275 74.7882 143.245 86.0764 142.465C86.095 145.752 87.2759 150.454 88.0917 153.688C89.9838 161.188 92.3899 168.598 95.3627 175.72C96.4785 178.393 98.0417 181.532 99.2857 184.201C96.7582 184.529 94.6282 184.795 92.0842 184.916C85.5711 185.09 79.0541 184.795 72.5812 184.033C68.76 183.568 64.6549 182.784 60.7799 182.222C60.3376 179.758 58.652 174.971 57.8273 172.469C59.1863 171.611 61.1171 170.647 62.123 169.411C70.9649 158.549 60.287 150.299 50.7116 147.847C50.2498 145.434 48.3844 141.64 48.1627 139.907Z" fill="#F3F1E9"/>
<path d="M121.002 29.1831C134.165 28.8634 141.61 29.2802 154.254 33.1026C173.817 39.0164 186.877 52.47 196.565 70.5694C203.846 84.1718 211.364 96.5959 211.227 112.777C211.209 114.54 210.863 119.691 211.656 120.972C211.303 121.239 211.31 121.272 210.861 121.308C211.14 120.476 210.202 119.621 209.82 118.822C208.71 116.503 208.797 113.991 208.629 111.496C208.554 111.008 208.51 110.574 208.462 110.082C208.162 109.366 208.072 108.474 207.912 107.71C207.314 104.853 207.22 101.925 206.232 99.1616C205.337 96.6528 204.742 94.061 203.744 91.5857C202.826 89.3053 202.218 86.7269 200.798 84.69C198.374 81.2119 196.524 77.4006 194.215 73.8393C193.24 72.4842 192.835 70.3968 191.967 69.0463C190.429 66.6515 188.747 64.1842 187.222 61.7945C185.883 59.6969 183.529 57.4762 181.8 55.6991C181.815 55.5952 181.844 55.405 181.84 55.3048C181.815 54.6209 176.939 49.7228 176.131 48.9457C169.324 42.4018 157.867 36.5202 148.816 34.3698C146.179 33.7436 143.641 33.7214 140.977 33.4266C138.38 33.1391 135.881 32.5594 133.252 32.4266C131.385 32.3323 129.479 32.3618 127.613 32.4534C126.788 32.4938 125.694 32.7324 124.89 32.6237C124.638 32.5896 124.411 32.3722 124.221 32.2135C124.11 32.1203 124.004 32.0199 123.888 31.9329C123.668 31.7674 123.542 31.6886 123.266 31.7327L123.158 31.868C122.048 33.2278 121.47 32.5247 120.45 31.5923C120.164 31.1599 117.849 31.5649 117.289 31.6341C118.323 31.0841 119.944 31.228 121.168 30.8741C121.453 30.3678 121.394 29.7174 120.914 29.3812L121.002 29.1831Z" fill="url(#paint3_linear_33_2)"/>
<path d="M208.462 110.082C208.895 110.128 209.013 110.105 209.353 110.387C209.389 110.854 209.144 111.057 208.734 111.22L208.629 111.496C208.554 111.008 208.51 110.574 208.462 110.082Z" fill="#94744C"/>
<path d="M170.04 224.561C171.594 224.339 172.524 223.986 173.934 223.7C177.442 222.992 180.558 221.994 183.949 220.906C185.799 220.313 187.695 219.965 189.557 219.268C191.018 218.721 192.44 217.998 193.833 217.453C201.236 214.557 207.662 210.533 212.836 204.278C214.653 202.081 215.707 200.969 217.252 198.388C218.915 195.616 220.005 193.892 221.113 190.677C223.293 184.35 223.634 178.878 223.817 172.231C223.878 170.052 223.437 165.748 224.163 163.568C224.283 163.209 225.293 163.035 225.703 162.951C226.718 167.012 226.281 167.515 226.515 171.325C227.148 181.653 225.509 191.099 220.496 200.154C219.608 201.758 218.274 203.349 217.129 204.785C211.532 211.811 204.085 216.718 196.028 220.278C193.687 221.313 190.927 221.833 188.632 222.952C188.014 223.106 187.37 223.389 186.851 223.768C184.562 224.857 173.381 227.535 170.334 227.044C170.045 226.998 169.282 226.243 169.007 225.987C169.369 225.507 169.71 225.068 170.04 224.561Z" fill="url(#paint4_linear_33_2)"/>
<path d="M211.656 120.972C216.844 128.002 220.686 135.978 223.379 144.347C224.772 148.673 226.193 156.725 225.487 161.255C224.376 161.193 224.337 161.128 223.554 160.288C222.59 154.651 221.964 149.083 220.186 143.539C219.119 140.102 217.254 136.665 215.98 133.346C215.104 131.064 209.923 123.167 210.861 121.308C211.311 121.272 211.303 121.239 211.656 120.972Z" fill="url(#paint5_linear_33_2)"/>
<path d="M117.289 31.6341C117.849 31.5649 120.164 31.1599 120.45 31.5924C119.624 32.0645 120.342 32.5198 119.132 32.42C118.583 32.3748 118.17 32.4535 117.675 32.7153C117.23 32.2587 117.112 32.2555 117.289 31.6341Z" fill="#8C5E49"/>
<path d="M187.814 102.741C188.72 99.8972 190.162 97.5798 193.419 98.3146C197.177 99.1627 197.616 101.771 197.278 105.11C197.181 106.07 197.217 107.78 196.94 108.672C195.793 112.38 189.734 136.355 187.406 137.811C186.199 139.384 185.988 140.684 185.663 142.676C184.661 143.227 184.62 143.811 183.384 143.774C183.205 144.271 182.975 144.367 182.52 144.584C182.102 144.78 181.681 144.965 181.254 145.141C180.64 145.411 176.477 147.32 176.197 147.316C176.033 147.618 176.036 147.597 175.77 147.816C175.433 147.804 175.039 147.34 174.439 147.169C175.145 145.127 177.394 136.611 178.124 135.408C178.016 134.595 177.895 134.078 177.705 133.284C178.055 132.247 178.259 131.112 178.476 130.035C177.688 130.992 176.897 132.503 175.567 132.656C175.277 132.543 175.172 132.521 174.989 132.252C174.638 131.736 174.765 131.064 174.861 130.484C175.459 126.868 181.473 104.286 183.836 102.689C184.807 102.033 186.763 102.528 187.814 102.741Z" fill="#282625"/>
<path d="M179.283 136.191L179.394 135.839C180.386 135.359 184.481 136.871 185.35 137.72L185.5 138.013C186.411 138.274 186.088 137.463 187.406 137.811C186.199 139.384 185.988 140.684 185.663 142.676C184.661 143.227 184.62 143.811 183.384 143.774C183.205 144.271 182.975 144.367 182.52 144.584C182.102 144.78 181.681 144.965 181.254 145.141C180.64 145.411 176.477 147.32 176.197 147.316C176.772 145.911 179.207 137.485 179.283 136.191Z" fill="#706E6C"/>
<path d="M179.283 136.191L179.577 136.075C179.955 136.481 180.04 136.784 180.269 137.306C181.204 137.807 181.835 138.174 182.836 138.498C181.813 140.249 181.263 141.133 181.266 143.203C181.266 143.406 181.258 145.118 181.254 145.141C180.64 145.411 176.477 147.32 176.197 147.316C176.772 145.911 179.207 137.485 179.283 136.191Z" fill="#8D8A8A"/>
<path d="M185.35 137.72L185.5 138.013C186.411 138.274 186.088 137.463 187.406 137.811C186.199 139.384 185.988 140.684 185.663 142.676C184.661 143.227 184.62 143.811 183.384 143.774C184.155 141.614 184.683 139.913 185.35 137.72Z" fill="#403F3D"/>
<path d="M188.536 104.865C189.307 104.126 189.205 103.934 190.164 104.287C192.348 104.331 193.327 104.957 195.189 106.042C195.253 109.133 194.027 111.915 193.138 114.823L189.54 126.655C188.764 129.155 187.872 133.288 186.737 135.588L186.528 135.746C186.091 135.605 186.154 135.597 185.77 135.378C184.247 134.515 182.237 134.049 180.513 133.88C179.98 133.828 179.518 133.926 179.243 133.624C179.332 132.833 180.228 130.639 180.512 129.644C182.015 124.378 183.675 119.111 185.424 113.925C186.581 110.493 186.935 108.08 188.536 104.865Z" fill="#403F3D"/>
<path d="M188.536 104.865C189.307 104.126 189.205 103.934 190.164 104.287C190.65 104.628 190.555 104.454 190.681 104.939C190.509 105.748 190.09 106.802 189.107 106.367C188.754 105.961 188.646 105.41 188.536 104.865Z" fill="#706E6C"/>
<path d="M185.111 107.274C185.217 107.36 185.275 107.461 185.362 107.578C185.388 107.968 185.371 108.346 185.24 108.717C183.011 115.08 181.302 122.066 178.995 128.348C178.892 127.775 178.751 127.204 178.684 126.625C178.497 124.999 184.076 108.595 185.111 107.274Z" fill="#CEB17C"/>
<path d="M191.635 99.9161C193.251 99.9177 194.223 100.558 195.57 101.363C195.639 102.193 195.587 103.052 195.563 103.888C194.941 103.594 194.728 103.532 194.059 103.361C192.705 102.66 191.101 102.409 189.615 102.255C190.084 101.046 190.54 100.506 191.635 99.9161Z" fill="#403F3D"/>
<path d="M185.923 103.469L186.123 103.547C186.462 104.498 185.364 105.381 184.617 105.745C183.497 104.582 185.001 103.915 185.923 103.469Z" fill="#403F3D"/>
<path d="M109.089 91.2524C113.322 90.745 120.962 94.1776 123.194 97.5469C128.038 104.863 116.961 110.69 111.672 110.813C108.544 110.671 105.275 109.58 102.728 107.695C100.101 105.753 103.41 102.659 104.796 100.989C102.955 100.617 97.1591 99.7564 99.5067 96.6235C101.499 93.9645 105.918 91.8053 109.089 91.2524Z" fill="#B96A20"/>
<path d="M109.983 93.0735C111.88 92.9023 112.945 93.3643 114.639 94.1444C122.781 97.8936 125.208 102.944 115.93 107.533C113.876 108.549 112.385 108.87 109.978 108.434C108.733 108.208 105.567 107.362 104.77 106.232C105.155 105.947 107.795 106.557 108.559 106.657C110.626 106.791 119.066 104.022 120.107 102.162C120.112 101.836 120.092 101.695 119.851 101.462C118.178 99.8433 104.337 97.7159 101.548 97.7189C104.14 94.9308 106.374 93.9634 109.983 93.0735Z" fill="#EE9C3A"/>
<path d="M106.81 100.461C109.361 100.924 113.352 101.491 115.673 102.313C115.116 102.786 114.666 103.015 114.04 103.372C112.686 103.899 108.507 105.212 107.215 104.435C106.918 103.907 107.259 101.896 106.964 101.201C106.927 101.111 106.833 100.577 106.81 100.461Z" fill="#CA7046"/>
<path d="M185.663 142.676C187.347 142.242 189.143 138.576 191.034 138.654C192.113 139.433 190.984 141.496 190.35 142.272C188.967 143.961 187.308 145.389 185.449 146.491C180.609 149.346 175.206 150.11 171.562 154.93C170.788 155.953 169.994 156.738 169.606 158.037C168.231 162.587 170.305 166.901 173.823 169.723C182.208 176.448 194.72 177.227 204.575 173.804C206.163 173.253 208.238 171.406 209.961 171.869C210.286 172.176 210.196 171.991 210.238 172.445C209.725 173.865 206.674 175.819 205.325 176.335C202.729 177.327 198.18 178.53 195.465 178.824C190.303 179.385 184.612 178.765 179.84 176.678C179.234 176.411 176.488 175.151 176.075 175.136C175.525 174.755 175.125 174.194 174.59 174.097C173.165 173.173 171.195 171.584 170.121 170.288C169.786 169.361 169.493 169.468 168.835 168.762L168.741 168.66C168.711 168.596 168.204 167.878 168.129 167.767C166.38 165.236 165.702 162.087 166.248 159.034C167.11 154.317 170.323 151.374 173.898 148.817C174.083 148.269 174.264 147.72 174.439 147.169C175.039 147.34 175.433 147.804 175.77 147.816C176.036 147.597 176.033 147.618 176.197 147.316C176.477 147.32 180.64 145.411 181.254 145.141C181.681 144.965 182.102 144.78 182.52 144.584C182.975 144.367 183.205 144.271 183.384 143.774C184.62 143.811 184.661 143.227 185.663 142.676Z" fill="#6B3724"/>
<path d="M168.741 168.66L168.835 168.762C169.493 169.468 169.786 169.361 170.121 170.288C171.195 171.584 173.165 173.173 174.59 174.097C175.125 174.194 175.525 174.755 176.075 175.136C175.683 176.253 175.265 177.362 174.824 178.46C173.98 180.569 172.772 181.709 171.352 183.406C170.532 184.387 169.84 185.361 169.106 186.404C168.618 187.097 168.257 187.93 167.325 187.461C166.959 186.128 166.677 178.032 166.699 176.293C166.707 175.721 168.419 169.347 168.741 168.66Z" fill="#282625"/>
<path d="M170.121 170.288C171.195 171.584 173.165 173.173 174.59 174.097C174.182 174.961 173.49 176.813 173.23 177.709C171.992 177.096 169.742 176.216 168.427 175.795C169.019 174.264 169.584 171.96 170.121 170.288Z" fill="#706E6C"/>
<path d="M168.253 177.609C170.031 178.603 170.375 178.789 172.354 179.234C171.726 179.927 171.046 180.923 170.482 181.701C169.915 182.458 169.146 183.295 168.514 184.019C168.295 182.098 168.169 179.515 168.253 177.609Z" fill="#706E6C"/>
<path d="M142.082 91.5136C142.761 91.4121 143.893 91.3934 144.674 91.448C147.844 91.6694 153.164 94.5797 152.969 98.364C152.889 99.9363 151.385 100.104 150.299 99.0882C148.522 97.4259 147.766 96.4292 145.328 95.75C142.578 95.1184 140.31 95.8674 138.235 97.7144C137.567 98.2291 136.766 99.0033 135.977 99.3095C133.925 100.111 134.007 97.201 134.831 96.0861C136.724 93.523 138.983 92.0139 142.082 91.5136Z" fill="#6B3724"/>
<path d="M83.5167 89.549C87.1338 89.2176 92.8681 92.6452 92.2623 97.0445C92.0694 98.4461 90.0543 97.7439 89.399 96.7481C88.7188 95.7145 87.3042 94.5792 86.2147 93.9307C82.2021 92.1541 81.0937 94.1025 77.7527 95.7725C75.7645 96.7663 75.3128 94.0809 76.4366 92.8979C78.3932 90.8384 80.7522 89.8173 83.5167 89.549Z" fill="#6B3724"/>
</g>
</g>
<defs>
<linearGradient id="paint0_linear_33_2" x1="131.694" y1="225.856" x2="127.387" y2="32.1904" gradientUnits="userSpaceOnUse">
<stop stop-color="#E1AE6E"/>
<stop offset="1" stop-color="#F2CF94"/>
</linearGradient>
<linearGradient id="paint1_linear_33_2" x1="93.6652" y1="217.858" x2="83.1102" y2="235.614" gradientUnits="userSpaceOnUse">
<stop stop-color="#D07826"/>
<stop offset="1" stop-color="#FBB04B"/>
</linearGradient>
<linearGradient id="paint2_linear_33_2" x1="170.356" y1="219.783" x2="178.732" y2="236.771" gradientUnits="userSpaceOnUse">
<stop stop-color="#D4802B"/>
<stop offset="1" stop-color="#FAAE4B"/>
</linearGradient>
<linearGradient id="paint3_linear_33_2" x1="183.984" y1="51.1021" x2="160.687" y2="80.6248" gradientUnits="userSpaceOnUse">
<stop stop-color="#5D2F20"/>
<stop offset="1" stop-color="#8A5745"/>
</linearGradient>
<linearGradient id="paint4_linear_33_2" x1="210.342" y1="211.236" x2="192.645" y2="189.74" gradientUnits="userSpaceOnUse">
<stop stop-color="#632F20"/>
<stop offset="1" stop-color="#7D482C"/>
</linearGradient>
<linearGradient id="paint5_linear_33_2" x1="221.97" y1="140.032" x2="216.176" y2="141.623" gradientUnits="userSpaceOnUse">
<stop stop-color="#612E21"/>
<stop offset="1" stop-color="#78503A"/>
</linearGradient>
<clipPath id="clip0_33_2">
<rect width="257" height="264" fill="white"/>
</clipPath>
</defs>
</svg>
